<?xml version="1.0" encoding="UTF-8"?>
<svg id="Camada_1" data-name="Camada 1" xmlns="http://www.w3.org/2000/svg" viewBox="0 0 1080 1080">
  <defs>
    <style>
      .cls-1 {
        fill: #611311;
      }

      .cls-2 {
        fill: #7a161a;
      }
    </style>
  </defs>
  <g>
    <path class="cls-1" d="M580.87,358.09l-.29,87.01,14.04-19.15.2-59.35,43.21.14,9.69-13.21-62.05-.21c-.94,0-4.8,3.83-4.8,4.77Z"/>
    <path class="cls-1" d="M499.59,353.04h-.22c-.11-.04-.2-.07-.27-.07l-10.81.04-48.84-.16.23.32h-2.63s9.69,13.22,9.69,13.22l41.55-.14h1.66s.2,59.34.2,59.34l14.04,19.15-.06-17.11.23-69.8c0-.94-3.83-4.8-4.77-4.8Z"/>
    <path class="cls-1" d="M681.6,307.32l10.24-13.96-108.16-.35c-15.52,1.35-29.54,7.16-41.17,17.46-.36-.36-.75-.7-1.12-1.05v-.05c-.13-.11-.26-.21-.39-.32-8.22-7.57-18.45-12.32-29.31-14.72-3.45-.8-6.98-1.37-10.61-1.68l-6.35.02-98.91-.3.45.62h-3.36s10.24,13.97,10.24,13.97l85.34-.33,13.48.04c1.9.22,3.8.53,5.69.91,9.18,1.98,18.09,5.89,24.68,12.64l-7.1,14.77c-6.06-5.68-14.2-11.13-22.61-12.11-.3-.06-.55-.1-.71-.09l-13.68.05-70.62-.24.34.47h-2.99s10.17,13.88,10.17,13.88l63.3-.1,13.11.07c9.93,2.03,17.27,9.89,18.54,19.99l.22,70.73-.13,37.2.25.35v1.75s14.04,19.15,14.04,19.15l-.19-58.42.25-74.13c.02-4.58,4.64-16.03,7.07-20.23.44-.75-.03-1.85,1.46-1.45.43.11,3.44,6.84,3.85,7.92,1.1,2.86,3.82,11.18,3.81,13.82l-.44,132.86,14.04-19.15.34-110.02c1.29-10.23,8.8-18.17,18.92-20.08l76.03.12,10.17-13.87-86.95-.29c-1.45,0-9.45,2.7-11.18,3.51-4.53,2.12-8.24,5.78-12.03,8.92l-7.2-15c7.97-8.17,19.31-12.18,30.44-13.65l98.75.38Z"/>
  </g>
  <g>
    <path class="cls-2" d="M344.46,535.78h-27.79v-5.02c0-4.5,2.83-7.33,7.33-7.33h63.29v5.02c0,4.38-2.96,7.33-7.33,7.33h-20.71v74.48c0,4.5-2.96,7.33-7.33,7.33h-7.46v-81.82Z"/>
    <path class="cls-2" d="M417.79,523.43h4.63l46.82,94.16h-10.55c-3.73,0-6.69-1.8-8.36-5.15l-6.05-12.74h-48.24l-6.17,12.74c-1.54,3.34-4.63,5.15-8.36,5.15h-10.42l46.7-94.16ZM439.53,588.66l-19.43-41.42-19.3,41.42h38.72Z"/>
    <path class="cls-2" d="M475.42,523.43h5.15l62.13,65.09v-57.5c0-4.63,2.96-7.59,7.59-7.59h7.2v94.16h-5.27l-62.01-65.09v57.5c0,4.63-2.96,7.59-7.46,7.59h-7.33v-94.16Z"/>
    <path class="cls-2" d="M610.36,523.43h4.63l46.83,94.16h-10.55c-3.73,0-6.69-1.8-8.36-5.15l-6.05-12.74h-48.24l-6.17,12.74c-1.54,3.34-4.63,5.15-8.36,5.15h-10.42l46.7-94.16ZM632.11,588.66l-19.43-41.42-19.3,41.42h38.72Z"/>
    <path class="cls-2" d="M668,523.43h5.15l62.13,65.09v-57.5c0-4.63,2.96-7.59,7.59-7.59h7.2v94.16h-5.27l-62-65.09v57.5c0,4.63-2.96,7.59-7.46,7.59h-7.33v-94.16Z"/>
    <path class="cls-2" d="M322.21,708.01c0-15.05,10.93-22.51,19.68-28.17-5.79-6.82-10.29-13.12-10.29-22.64,0-13.64,11.06-22.64,24.57-22.64,15.44,0,24.19,9.78,24.19,22.13s-9.26,20.07-19.68,26.24l16.98,17.88c2.06-2.57,4.5-5.79,7.2-10.03,2.7-4.12,6.56-4.5,10.16-2.44l3.86,2.19c-3.22,5.92-8.62,13.76-12.99,19.29l15.31,15.82-3.47,3.6c-2.7,2.83-7.08,2.83-9.78,0l-10.42-10.81c-10.16,11.96-20.71,13.64-28.69,13.64-14.67,0-26.63-8.75-26.63-24.06ZM350.25,720.23c6.69,0,13.12-3.73,19.04-10.55l-19.81-20.84c-3.6,2.19-14.41,7.33-14.41,18.01,0,7.85,6.43,13.38,15.18,13.38ZM352.83,673.54c5.92-3.34,14.67-7.72,14.54-16.85-.13-7.85-5.66-11.32-11.45-11.32-4.89,0-10.93,3.22-10.93,11.45,0,6.95,3.6,11.45,7.85,16.72Z"/>
    <path class="cls-2" d="M428.47,648.58h-27.79v-5.02c0-4.5,2.83-7.33,7.33-7.33h63.29v5.02c0,4.38-2.96,7.33-7.33,7.33h-20.71v74.48c0,4.5-2.96,7.33-7.33,7.33h-7.46v-81.82Z"/>
    <path class="cls-2" d="M477.35,636.23h66.25v5.27c0,4.5-2.57,7.07-7.2,7.07h-44.25v29.2h40.52v5.02c0,4.63-2.57,7.2-7.2,7.2h-33.32v28.04h44.12c4.5,0,7.33,2.96,7.33,7.33v5.02h-66.25v-94.16Z"/>
    <path class="cls-2" d="M552.35,636.23h7.59c4.38,0,7.33,2.83,7.33,7.33v74.48h40.78c4.37,0,7.33,2.96,7.33,7.33v5.02h-63.03v-94.16Z"/>
    <path class="cls-2" d="M621.69,636.23h66.25v5.27c0,4.5-2.57,7.07-7.2,7.07h-44.25v29.2h40.52v5.02c0,4.63-2.57,7.2-7.2,7.2h-33.32v28.04h44.12c4.5,0,7.33,2.96,7.33,7.33v5.02h-66.25v-94.16Z"/>
    <path class="cls-2" d="M689.23,719.33l3.22-4.63c2.44-3.73,6.17-4.12,10.29-1.93,7.33,4.12,16.08,6.95,24.96,6.95,13.38,0,20.84-5.92,20.84-14.92,0-10.93-11.06-13.12-23.8-15.69-11.19-2.19-35.5-4.89-35.5-26.37s19.68-28.04,34.99-28.04c13.76,0,24.57,4.24,33.45,10.81l-3.22,4.5c-2.44,3.73-6.3,4.37-10.29,2.44-6.69-3.34-13.25-5.15-20.71-5.15-7.85,0-19.43,3.22-19.43,14.79s15.95,12.99,26.37,14.92c13.89,2.32,32.93,6.05,32.93,27.27,0,18.78-14.41,28.04-35.12,28.04-17.37,0-29.07-5.27-38.98-12.99Z"/>
  </g>
  <g>
    <path class="cls-2" d="M325.81,786.79l12.53-34.08h4.54l12.65,34.08h-2.91l-11.99-32.81-12.05,32.81h-2.78ZM331.93,775.59l.54-2.42h16.35l.48,2.42h-17.37Z"/>
    <path class="cls-2" d="M405.39,780.16c-1.68,2.48-4.02,4.21-7.02,5.18-3.01.97-6.55,1.45-10.62,1.45h-8.84v-34.08h8.84c4.07,0,7.62.64,10.62,1.91,3,1.27,5.35,3.16,7.02,5.66,1.68,2.5,2.51,5.65,2.51,9.44,0,4.48-.84,7.96-2.51,10.44ZM385.99,784.37h2.24c2.5,0,4.78-.2,6.84-.61,2.06-.4,3.83-1.14,5.33-2.21,1.49-1.07,2.62-2.56,3.39-4.48.77-1.92,1.15-4.37,1.15-7.36,0-3.31-.69-6.03-2.06-8.17-1.37-2.14-3.31-3.73-5.81-4.78-2.5-1.05-5.45-1.57-8.84-1.57h-6.54v29.18h4.3Z"/>
    <path class="cls-2" d="M453.73,752.71h3.03l-12.41,34.08h-4.66l-12.35-34.08h2.97l11.74,32.69,11.68-32.69Z"/>
    <path class="cls-2" d="M493.68,787.64c-5.33,0-9.38-1.61-12.17-4.81-2.78-3.21-4.18-7.54-4.18-12.98,0-3.59.61-6.71,1.82-9.35,1.21-2.64,3.03-4.7,5.45-6.17s5.45-2.21,9.08-2.21c5.33,0,9.37,1.61,12.14,4.81,2.76,3.21,4.15,7.52,4.15,12.92,0,3.51-.62,6.61-1.85,9.29-1.23,2.68-3.05,4.77-5.45,6.26s-5.4,2.24-8.99,2.24ZM493.68,785.04c3.03,0,5.54-.64,7.54-1.91,2-1.27,3.51-3.05,4.54-5.33,1.03-2.28,1.54-4.93,1.54-7.96s-.49-5.73-1.48-7.99c-.99-2.26-2.51-4.02-4.54-5.27-2.04-1.25-4.57-1.88-7.6-1.88-4.48,0-7.87,1.33-10.17,3.99s-3.45,6.38-3.45,11.14c0,2.99.48,5.62,1.45,7.9.97,2.28,2.47,4.07,4.51,5.36,2.04,1.29,4.59,1.94,7.66,1.94Z"/>
    <path class="cls-2" d="M550.16,787.4c-3.11,0-5.9-.67-8.38-2-2.48-1.33-4.44-3.3-5.87-5.9-1.43-2.6-2.15-5.84-2.15-9.72s.71-7.18,2.12-9.81c1.41-2.62,3.38-4.59,5.9-5.9s5.4-1.97,8.63-1.97c2.66,0,5.02.48,7.08,1.45,2.06.97,3.78,2.37,5.18,4.21,1.39,1.84,2.33,4.09,2.81,6.75h-2.84c-.4-2.14-1.18-3.94-2.33-5.42-1.15-1.47-2.56-2.58-4.24-3.33-1.68-.75-3.56-1.12-5.66-1.12-4.28,0-7.66,1.29-10.14,3.87-2.48,2.58-3.72,6.3-3.72,11.14s1.22,8.79,3.66,11.35c2.44,2.56,5.76,3.84,9.96,3.84,2.3,0,4.34-.38,6.11-1.15,1.77-.77,3.22-1.88,4.33-3.33,1.11-1.45,1.85-3.23,2.21-5.33h2.97c-.48,2.62-1.41,4.85-2.78,6.69-1.37,1.84-3.14,3.24-5.3,4.21-2.16.97-4.67,1.45-7.54,1.45Z"/>
    <path class="cls-2" d="M587.39,786.79l12.53-34.08h4.54l12.65,34.08h-2.91l-11.99-32.81-12.05,32.81h-2.78ZM593.5,775.59l.54-2.42h16.35l.48,2.42h-17.37Z"/>
    <path class="cls-2" d="M654.4,787.4c-3.11,0-5.9-.67-8.38-2-2.48-1.33-4.44-3.3-5.87-5.9-1.43-2.6-2.15-5.84-2.15-9.72s.71-7.18,2.12-9.81c1.41-2.62,3.38-4.59,5.9-5.9,2.52-1.31,5.4-1.97,8.63-1.97,2.66,0,5.02.48,7.08,1.45,2.06.97,3.78,2.37,5.18,4.21,1.39,1.84,2.33,4.09,2.81,6.75h-2.84c-.4-2.14-1.18-3.94-2.33-5.42-1.15-1.47-2.56-2.58-4.24-3.33-1.68-.75-3.56-1.12-5.66-1.12-4.28,0-7.66,1.29-10.14,3.87-2.48,2.58-3.72,6.3-3.72,11.14s1.22,8.79,3.66,11.35,5.76,3.84,9.96,3.84c2.3,0,4.34-.38,6.11-1.15,1.77-.77,3.22-1.88,4.33-3.33,1.11-1.45,1.85-3.23,2.21-5.33h2.97c-.48,2.62-1.41,4.85-2.78,6.69-1.37,1.84-3.14,3.24-5.3,4.21-2.16.97-4.67,1.45-7.54,1.45Z"/>
    <path class="cls-2" d="M693.81,755.19v-2.48h12.23v2.48h-12.23ZM693.81,786.79v-2.42h12.23v2.42h-12.23ZM698.59,785.7v-31.9h2.72v31.9h-2.72Z"/>
    <path class="cls-2" d="M729.34,786.79l12.53-34.08h4.54l12.65,34.08h-2.91l-11.99-32.81-12.05,32.81h-2.78ZM735.46,775.59l.54-2.42h16.35l.48,2.42h-17.37Z"/>
  </g>
</svg>