<?xml version="1.0" encoding="UTF-8"?>
<svg id="Camada_1" data-name="Camada 1" xmlns="http://www.w3.org/2000/svg" viewBox="0 0 1080 1080">
  <defs>
    <style>
      .cls-1 {
        fill: #f6e3d0;
      }
    </style>
  </defs>
  <path class="cls-1" d="M612.73,480.85l-.55,164.41,26.53-36.19.37-112.14,81.64.27,18.3-24.96-117.24-.39c-1.78,0-9.06,7.23-9.07,9.01Z"/>
  <path class="cls-1" d="M459.14,471.3h-.42c-.2-.08-.38-.14-.52-.14l-20.43.07-92.28-.31.44.61-4.96.02,18.3,24.96,78.51-.26h3.13s.37,112.13.37,112.13l26.54,36.19-.11-32.33.44-131.88c0-1.77-7.23-9.06-9.01-9.07Z"/>
  <path class="cls-1" d="M803.06,384.9l19.34-26.38-204.38-.67c-29.33,2.56-55.81,13.53-77.79,32.99-.69-.69-1.41-1.33-2.11-1.99v-.09c-.24-.21-.49-.4-.73-.6-15.52-14.31-34.87-23.28-55.38-27.81-6.51-1.52-13.2-2.59-20.04-3.18l-12,.04-186.88-.57.85,1.18-6.34.02,19.34,26.38,161.24-.61,25.48.07c3.59.42,7.18,1,10.75,1.72,17.35,3.74,34.18,11.12,46.63,23.89l-13.41,27.91c-11.45-10.73-26.83-21.03-42.73-22.88-.56-.11-1.03-.18-1.33-.18l-25.85.09-133.44-.44.64.89-5.65.02,19.21,26.21,119.6-.18,24.77.13c18.76,3.84,32.64,18.69,35.04,37.77l.41,133.64-.25,70.28.47.65v3.3s26.53,36.18,26.53,36.18l-.37-110.39.47-140.07c.03-8.65,8.77-30.29,13.35-38.22.82-1.42-.06-3.49,2.76-2.74.8.21,6.5,12.92,7.28,14.96,2.08,5.41,7.21,21.12,7.19,26.11l-.84,251.04,26.52-36.18.64-207.88c2.43-19.33,16.62-34.33,35.75-37.94l143.66.22,19.21-26.21-164.29-.55c-2.74,0-17.86,5.1-21.13,6.63-8.56,4-15.57,10.91-22.73,16.86l-13.61-28.34c15.05-15.43,36.48-23.01,57.52-25.78l186.58.71Z"/>
</svg>