<?xml version="1.0" encoding="UTF-8"?>
<svg id="Camada_1" data-name="Camada 1" xmlns="http://www.w3.org/2000/svg" viewBox="0 0 1080 1080">
  <defs>
    <style>
      .cls-1 {
        fill: #fff;
      }

      .cls-2 {
        fill: #611311;
      }
    </style>
  </defs>
  <rect class="cls-2" width="1080" height="5408"/>
  <g>
    <g>
      <g>
        <path class="cls-1" d="M357.19,498.4h-17.46v-3.15c0-2.83,1.78-4.61,4.61-4.61h39.77v3.15c0,2.75-1.86,4.61-4.61,4.61h-13.01v46.8c0,2.83-1.86,4.61-4.61,4.61h-4.69v-51.41Z"/>
        <path class="cls-1" d="M403.26,490.64h2.91l29.42,59.16h-6.63c-2.34,0-4.2-1.13-5.25-3.23l-3.8-8h-30.31l-3.88,8c-.97,2.1-2.91,3.23-5.25,3.23h-6.55l29.34-59.16ZM416.92,531.62l-12.21-26.03-12.12,26.03h24.33Z"/>
        <path class="cls-1" d="M439.48,490.64h3.23l39.04,40.9v-36.13c0-2.91,1.86-4.77,4.77-4.77h4.53v59.16h-3.31l-38.96-40.9v36.13c0,2.91-1.86,4.77-4.69,4.77h-4.61v-59.16Z"/>
        <path class="cls-1" d="M524.27,490.64h2.91l29.42,59.16h-6.63c-2.34,0-4.2-1.13-5.25-3.23l-3.8-8h-30.31l-3.88,8c-.97,2.1-2.91,3.23-5.25,3.23h-6.55l29.34-59.16ZM537.93,531.62l-12.21-26.03-12.12,26.03h24.33Z"/>
        <path class="cls-1" d="M560.48,490.64h3.23l39.04,40.9v-36.13c0-2.91,1.86-4.77,4.77-4.77h4.53v59.16h-3.31l-38.96-40.9v36.13c0,2.91-1.86,4.77-4.69,4.77h-4.61v-59.16Z"/>
        <path class="cls-1" d="M638.89,535.74c0-9.46,6.87-14.15,12.37-17.7-3.64-4.28-6.47-8.24-6.47-14.22,0-8.57,6.95-14.23,15.44-14.23,9.7,0,15.2,6.14,15.2,13.9s-5.82,12.61-12.37,16.49l10.67,11.23c1.29-1.62,2.83-3.64,4.53-6.3,1.7-2.59,4.12-2.83,6.39-1.54l2.42,1.37c-2.02,3.72-5.42,8.65-8.16,12.12l9.62,9.94-2.18,2.26c-1.7,1.78-4.45,1.78-6.14,0l-6.55-6.79c-6.38,7.52-13.01,8.57-18.02,8.57-9.21,0-16.73-5.5-16.73-15.11ZM656.51,543.42c4.2,0,8.24-2.34,11.96-6.63l-12.45-13.09c-2.26,1.37-9.05,4.61-9.05,11.32,0,4.93,4.04,8.41,9.54,8.41ZM658.12,514.08c3.72-2.1,9.21-4.85,9.13-10.59-.08-4.93-3.56-7.11-7.19-7.11-3.07,0-6.87,2.02-6.87,7.19,0,4.36,2.26,7.19,4.93,10.51Z"/>
        <path class="cls-1" d="M725.13,498.4h-17.46v-3.15c0-2.83,1.78-4.61,4.61-4.61h39.77v3.15c0,2.75-1.86,4.61-4.61,4.61h-13.01v46.8c0,2.83-1.86,4.61-4.61,4.61h-4.69v-51.41Z"/>
        <path class="cls-1" d="M755.85,490.64h41.63v3.31c0,2.83-1.62,4.45-4.53,4.45h-27.8v18.35h25.46v3.15c0,2.91-1.62,4.53-4.53,4.53h-20.93v17.62h27.72c2.83,0,4.61,1.86,4.61,4.61v3.15h-41.63v-59.16Z"/>
        <path class="cls-1" d="M802.97,490.64h4.77c2.75,0,4.61,1.78,4.61,4.61v46.8h25.62c2.75,0,4.61,1.86,4.61,4.61v3.15h-39.6v-59.16Z"/>
        <path class="cls-1" d="M846.54,490.64h41.62v3.31c0,2.83-1.62,4.45-4.53,4.45h-27.8v18.35h25.46v3.15c0,2.91-1.62,4.53-4.53,4.53h-20.93v17.62h27.72c2.83,0,4.61,1.86,4.61,4.61v3.15h-41.62v-59.16Z"/>
        <path class="cls-1" d="M888.98,542.85l2.02-2.91c1.54-2.34,3.88-2.59,6.47-1.21,4.61,2.59,10.1,4.36,15.68,4.36,8.4,0,13.09-3.72,13.09-9.38,0-6.87-6.95-8.24-14.95-9.86-7.03-1.37-22.31-3.07-22.31-16.57s12.37-17.62,21.98-17.62c8.65,0,15.44,2.67,21.01,6.79l-2.02,2.83c-1.54,2.34-3.96,2.75-6.47,1.54-4.2-2.1-8.33-3.23-13.01-3.23-4.93,0-12.2,2.02-12.2,9.3s10.02,8.16,16.57,9.38c8.73,1.46,20.69,3.8,20.69,17.14,0,11.8-9.05,17.62-22.07,17.62-10.91,0-18.27-3.31-24.49-8.16Z"/>
      </g>
      <g>
        <path class="cls-1" d="M352.01,591.57l7.87-21.42h2.85l7.95,21.42h-1.83l-7.53-20.62-7.57,20.62h-1.75ZM355.85,584.54l.34-1.52h10.27l.3,1.52h-10.92Z"/>
        <path class="cls-1" d="M402.01,587.41c-1.05,1.56-2.52,2.64-4.41,3.25-1.89.61-4.11.91-6.68.91h-5.55v-21.42h5.55c2.56,0,4.79.4,6.68,1.2,1.89.8,3.36,1.98,4.41,3.56,1.05,1.57,1.58,3.55,1.58,5.93,0,2.81-.53,5-1.58,6.56ZM389.82,590.05h1.41c1.57,0,3-.13,4.3-.38,1.29-.25,2.41-.72,3.35-1.39.94-.67,1.65-1.61,2.13-2.81.48-1.2.72-2.74.72-4.62,0-2.08-.43-3.79-1.29-5.14-.86-1.34-2.08-2.35-3.65-3.01-1.57-.66-3.42-.99-5.55-.99h-4.11v18.33h2.7Z"/>
        <path class="cls-1" d="M432.38,570.16h1.9l-7.8,21.42h-2.93l-7.76-21.42h1.86l7.38,20.54,7.34-20.54Z"/>
        <path class="cls-1" d="M457.49,592.11c-3.35,0-5.9-1.01-7.65-3.02-1.75-2.02-2.63-4.74-2.63-8.16,0-2.26.38-4.22,1.14-5.88s1.9-2.95,3.42-3.88c1.52-.93,3.42-1.39,5.71-1.39,3.35,0,5.89,1.01,7.63,3.02,1.74,2.02,2.61,4.72,2.61,8.12,0,2.21-.39,4.15-1.16,5.84-.77,1.69-1.92,3-3.42,3.94-1.51.94-3.39,1.41-5.65,1.41ZM457.49,590.47c1.9,0,3.48-.4,4.74-1.2,1.26-.8,2.21-1.91,2.85-3.35.65-1.43.97-3.1.97-5s-.31-3.6-.93-5.02-1.57-2.52-2.85-3.31c-1.28-.79-2.87-1.18-4.77-1.18-2.82,0-4.95.84-6.39,2.51-1.45,1.67-2.17,4.01-2.17,7,0,1.88.3,3.53.91,4.96.61,1.43,1.55,2.56,2.83,3.37,1.28.81,2.88,1.22,4.81,1.22Z"/>
        <path class="cls-1" d="M492.98,591.95c-1.95,0-3.71-.42-5.27-1.26-1.56-.84-2.79-2.07-3.69-3.71-.9-1.64-1.35-3.67-1.35-6.1s.44-4.51,1.33-6.16c.89-1.65,2.12-2.88,3.71-3.71,1.58-.82,3.39-1.24,5.42-1.24,1.67,0,3.16.31,4.45.91,1.29.61,2.38,1.49,3.25,2.64s1.47,2.57,1.77,4.24h-1.79c-.25-1.34-.74-2.48-1.46-3.4-.72-.92-1.61-1.62-2.66-2.09-1.05-.47-2.24-.7-3.56-.7-2.69,0-4.81.81-6.37,2.43-1.56,1.62-2.34,3.96-2.34,7s.77,5.52,2.3,7.13,3.62,2.42,6.26,2.42c1.45,0,2.73-.24,3.84-.72,1.12-.48,2.02-1.18,2.72-2.09.7-.91,1.16-2.03,1.39-3.35h1.86c-.3,1.65-.89,3.05-1.75,4.2-.86,1.15-1.97,2.03-3.33,2.64-1.36.61-2.94.91-4.74.91Z"/>
        <path class="cls-1" d="M516.37,591.57l7.87-21.42h2.85l7.95,21.42h-1.83l-7.53-20.62-7.57,20.62h-1.75ZM520.21,584.54l.34-1.52h10.27l.3,1.52h-10.92Z"/>
        <path class="cls-1" d="M558.48,591.95c-1.95,0-3.71-.42-5.27-1.26-1.56-.84-2.79-2.07-3.69-3.71-.9-1.64-1.35-3.67-1.35-6.1s.44-4.51,1.33-6.16c.89-1.65,2.12-2.88,3.71-3.71,1.58-.82,3.39-1.24,5.42-1.24,1.67,0,3.16.31,4.45.91,1.29.61,2.38,1.49,3.25,2.64s1.47,2.57,1.77,4.24h-1.79c-.25-1.34-.74-2.48-1.46-3.4-.72-.92-1.61-1.62-2.66-2.09-1.05-.47-2.24-.7-3.56-.7-2.69,0-4.81.81-6.37,2.43-1.56,1.62-2.34,3.96-2.34,7s.77,5.52,2.3,7.13c1.53,1.61,3.62,2.42,6.26,2.42,1.45,0,2.73-.24,3.84-.72s2.02-1.18,2.72-2.09c.7-.91,1.16-2.03,1.39-3.35h1.86c-.3,1.65-.89,3.05-1.75,4.2-.86,1.15-1.97,2.03-3.33,2.64-1.36.61-2.94.91-4.74.91Z"/>
        <path class="cls-1" d="M583.24,571.72v-1.56h7.68v1.56h-7.68ZM583.24,591.57v-1.52h7.68v1.52h-7.68ZM586.24,590.89v-20.05h1.71v20.05h-1.71Z"/>
        <path class="cls-1" d="M605.57,591.57l7.87-21.42h2.85l7.95,21.42h-1.83l-7.53-20.62-7.57,20.62h-1.75ZM609.41,584.54l.34-1.52h10.27l.3,1.52h-10.92Z"/>
      </g>
    </g>
    <g>
      <path class="cls-1" d="M244.51,522.88l-.15,46.31,7.48-10.2.11-31.59,23,.08,5.16-7.03-33.03-.11c-.5,0-2.55,2.04-2.55,2.54Z"/>
      <path class="cls-1" d="M201.24,520.19h-.12c-.06-.02-.11-.04-.15-.04l-5.76.02-26-.09.12.17h-1.4s5.16,7.04,5.16,7.04l22.12-.07h.88s.11,31.59.11,31.59l7.48,10.2-.03-9.11.12-37.15c0-.5-2.04-2.55-2.54-2.55Z"/>
      <path class="cls-1" d="M298.13,495.85l5.45-7.43-57.57-.19c-8.26.72-15.72,3.81-21.91,9.29-.19-.19-.4-.37-.6-.56v-.02c-.07-.06-.14-.11-.21-.17-4.37-4.03-9.82-6.56-15.6-7.83-1.83-.43-3.72-.73-5.65-.9h-3.38s-52.65-.15-52.65-.15l.24.33h-1.79s5.45,7.44,5.45,7.44l45.42-.17,7.18.02c1.01.12,2.02.28,3.03.49,4.89,1.05,9.63,3.13,13.14,6.73l-3.78,7.86c-3.23-3.02-7.56-5.93-12.04-6.45-.16-.03-.29-.05-.38-.05l-7.28.02-37.59-.13.18.25h-1.59s5.41,7.39,5.41,7.39l33.69-.05,6.98.04c5.29,1.08,9.19,5.26,9.87,10.64l.12,37.65-.07,19.8.13.18v.93s7.47,10.19,7.47,10.19l-.1-31.1.13-39.46c0-2.44,2.47-8.53,3.76-10.77.23-.4-.02-.98.78-.77.23.06,1.83,3.64,2.05,4.21.59,1.52,2.03,5.95,2.03,7.35l-.24,70.72,7.47-10.19.18-58.56c.69-5.44,4.68-9.67,10.07-10.69l40.47.06,5.41-7.38-46.28-.15c-.77,0-5.03,1.44-5.95,1.87-2.41,1.13-4.39,3.07-6.4,4.75l-3.83-7.98c4.24-4.35,10.28-6.48,16.2-7.26l52.56.2Z"/>
    </g>
  </g>
</svg>