<?xml version="1.0" encoding="UTF-8"?>
<svg id="Camada_1" data-name="Camada 1" xmlns="http://www.w3.org/2000/svg" viewBox="0 0 1080 1080">
  <defs>
    <style>
      .cls-1 {
        fill: #611311;
      }

      .cls-2 {
        fill: #7a161a;
      }
    </style>
  </defs>
  <g>
    <g>
      <path class="cls-2" d="M382.17,366.24l-7.38,6.55-1.18-1.33c-1.06-1.19-.98-2.62.22-3.68l16.81-14.93,1.18,1.33c1.03,1.16.94,2.64-.22,3.68l-5.5,4.89,17.57,19.79c1.06,1.2.95,2.65-.22,3.68l-1.98,1.76-19.3-21.73Z"/>
      <g>
        <path class="cls-2" d="M401.85,344.85l1.35-.94,32.83,17.83-3.07,2.15c-1.09.76-2.31.84-3.48.21l-4.36-2.47-14.03,9.84.8,4.96c.23,1.29-.3,2.44-1.38,3.2l-3.03,2.13-5.63-36.91ZM421.48,359.38l-14.1-8.09,2.84,15.98,11.26-7.9Z"/>
        <path class="cls-2" d="M406.16,384.85l-6.22-40.81,3.14-2.2,36.3,19.72-5.4,3.79c-1.64,1.15-3.59,1.27-5.34.32l-3.42-1.94-12.21,8.56.63,3.87c.35,1.9-.44,3.76-2.11,4.93l-5.36,3.76ZM403.86,346.28l4.94,32.4.7-.49c.54-.38.76-.86.66-1.44l-.98-6.09,15.85-11.12,5.33,3.02c.55.29,1.05.26,1.59-.12l.73-.51-28.81-15.65ZM408.96,370.32l-3.99-22.44,19.79,11.35-15.81,11.09ZM409.78,354.71l1.69,9.53,6.71-4.71-8.4-4.82Z"/>
      </g>
      <g>
        <path class="cls-2" d="M422.44,331.32l1.64-.8,29.94,11.17-8.91-18.38c-.72-1.48-.23-2.88,1.25-3.6l2.3-1.12,14.59,30.09-1.68.82-29.9-11.19,8.91,18.38c.72,1.48.23,2.88-1.21,3.58l-2.34,1.14-14.59-30.09Z"/>
        <path class="cls-2" d="M436.21,363.77l-16.13-33.27,3.91-1.9,26.52,9.9-6.98-14.4c-1.14-2.36-.29-4.82,2.07-5.96l3.89-1.89,16.13,33.27-3.96,1.92-26.47-9.91,6.98,14.4c.56,1.15.66,2.34.29,3.42-.37,1.08-1.19,1.97-2.32,2.52l-3.93,1.91ZM425.12,332.79l12.73,26.25.75-.36c.19-.09.43-.25.51-.48.06-.19.02-.45-.12-.74l-10.84-22.35,32.44,12.15-12.75-26.29-.71.35c-.6.29-.72.64-.43,1.24l10.84,22.34-32.42-12.1Z"/>
      </g>
      <g>
        <path class="cls-2" d="M470.38,311.3l1.58-.47,25.56,27.25-3.59,1.08c-1.27.38-2.46.07-3.37-.9l-3.36-3.71-16.41,4.93-.8,4.97c-.18,1.29-1.05,2.22-2.32,2.6l-3.54,1.07,6.26-36.81ZM484.45,331.27l-10.84-12.11-2.33,16.07,13.17-3.96Z"/>
        <path class="cls-2" d="M461.9,350.63l6.92-40.71,3.68-1.1,28.26,30.13-6.32,1.9c-1.92.57-3.81.07-5.17-1.38l-2.63-2.91-14.28,4.29-.62,3.87c-.27,1.92-1.6,3.43-3.56,4.02l-6.27,1.89ZM471.84,313.28l-5.49,32.32.81-.24c.64-.19,1-.58,1.08-1.16l.98-6.1,18.54-5.57,4.11,4.54c.42.45.92.58,1.55.39l.85-.26-22.44-23.92ZM469.13,337.72l3.27-22.55,15.22,17-18.49,5.56ZM474.81,323.16l-1.39,9.58,7.85-2.36-6.46-7.22Z"/>
      </g>
      <g>
        <path class="cls-2" d="M494.1,304.94l1.81-.24,24.94,19.99-2.7-20.24c-.22-1.63.69-2.81,2.32-3.03l2.54-.34,4.43,33.15-1.86.25-24.89-20,2.71,20.25c.22,1.63-.69,2.81-2.27,3.02l-2.58.35-4.43-33.15Z"/>
        <path class="cls-2" d="M497.01,340.08l-4.9-36.66,4.31-.57,22.09,17.71-2.12-15.87c-.35-2.61,1.23-4.67,3.84-5.02l4.29-.57,4.9,36.66-4.36.58-22.04-17.71,2.12,15.87c.35,2.6-1.21,4.66-3.79,5.01l-4.33.58ZM496.18,307.18l3.86,28.93.83-.11c.62-.08.84-.38.75-1.04l-3.29-24.63,27.01,21.7-3.87-28.97-.78.11c-.66.09-.89.38-.8,1.04l3.29,24.62-27-21.65Z"/>
      </g>
      <g>
        <path class="cls-2" d="M541.69,325.97c.38-5.33,4.44-7.7,7.69-9.48-1.88-2.56-3.32-4.91-3.07-8.28.34-4.83,4.49-7.74,9.28-7.4,5.47.39,8.32,4.07,8.01,8.45-.31,4.33-3.79,6.87-7.64,8.8l5.56,6.76c.79-.86,1.74-1.94,2.81-3.37,1.06-1.39,2.44-1.43,3.66-.61l1.31.87c-1.29,2.01-3.4,4.66-5.09,6.51l5.02,5.99-1.32,1.19c-1.03.94-2.58.83-3.46-.25l-3.42-4.09c-3.9,3.98-7.68,4.31-10.51,4.1-5.2-.37-9.21-3.77-8.82-9.2ZM551.32,331.01c2.37.17,4.74-.99,7.01-3.26l-6.49-7.88c-1.33.68-5.29,2.23-5.56,6.02-.2,2.78,1.94,4.9,5.04,5.12ZM553.41,314.53c2.18-1.04,5.39-2.36,5.58-5.6.15-2.78-1.72-4.15-3.77-4.3-1.73-.12-3.95.86-4.16,3.78-.18,2.46.99,4.15,2.36,6.12Z"/>
        <path class="cls-2" d="M566.29,337.8c-.1,0-.2,0-.3-.01-1.14-.08-2.18-.62-2.92-1.51l-2.22-2.66c-3.99,3.32-7.83,3.51-10.47,3.31-3.03-.22-5.73-1.35-7.62-3.21-2.08-2.04-3.07-4.77-2.84-7.88.38-5.33,3.95-8.17,6.89-9.93-1.44-2.2-2.51-4.6-2.27-7.83.2-2.8,1.5-5.26,3.66-6.92,2.04-1.57,4.71-2.33,7.51-2.12,3.07.22,5.62,1.37,7.36,3.31,1.66,1.86,2.47,4.35,2.28,7.03-.33,4.56-3.58,7.37-6.68,9.21l2.88,3.51c.41-.49.86-1.06,1.34-1.7,1.57-2.06,3.95-2.45,6.07-1.02l2.75,1.83-.94,1.46c-1.15,1.8-2.81,3.92-4.25,5.59l5.14,6.14-2.59,2.33c-.78.71-1.76,1.09-2.79,1.09ZM561.13,328.43l4.67,5.59c.16.19.33.24.45.25.11.02.29-.01.47-.17l.06-.05-4.92-5.87,1.04-1.14c1.35-1.47,2.8-3.27,3.92-4.83-.5-.28-.77-.11-1.1.32-1.14,1.55-2.16,2.68-2.91,3.5l-1.38,1.49-8.26-10.04,1.98-.99c4.46-2.23,6.46-4.43,6.67-7.34.12-1.73-.36-3.26-1.39-4.42-1.12-1.25-2.84-1.99-4.98-2.15-1.94-.12-3.75.36-5.1,1.4-1.37,1.05-2.16,2.56-2.29,4.36-.19,2.6.78,4.43,2.74,7.11l1.19,1.62-1.77.97c-3.53,1.94-6.48,3.88-6.78,8.06h0c-.14,2.05.47,3.81,1.79,5.11,1.29,1.26,3.2,2.05,5.39,2.2,2.44.17,5.68-.07,9.12-3.58l1.37-1.39ZM551.78,332.8c-.2,0-.39,0-.59-.02h0c-1.93-.14-3.67-.89-4.89-2.12-1.29-1.3-1.92-3.04-1.79-4.89.32-4.46,4.39-6.43,6.12-7.27l1.66-.84,8.42,10.22-1.14,1.14c-2.52,2.52-5.14,3.79-7.8,3.79ZM551.44,329.25c1.4.09,2.91-.46,4.44-1.68l-4.52-5.49c-1.4.74-3.18,1.94-3.32,3.93-.06.84.21,1.58.78,2.15.62.62,1.55,1.01,2.63,1.09ZM552.81,316.77l-.85-1.23c-1.42-2.05-2.89-4.17-2.67-7.26.17-2.33,1.3-3.63,2.22-4.32,1.06-.8,2.46-1.2,3.84-1.1,3.37.24,5.6,2.77,5.41,6.16-.24,4.12-3.98,5.88-6.22,6.93l-1.72.81ZM554.93,306.38c-.48,0-.96.15-1.3.41-.48.36-.75.94-.81,1.74-.1,1.37.35,2.41,1.2,3.74,1.81-.92,3.11-1.86,3.2-3.45.11-1.98-1.29-2.38-2.13-2.44-.06,0-.11,0-.16,0Z"/>
      </g>
      <g>
        <path class="cls-2" d="M595.17,311.84l-9.56-2.43.44-1.73c.39-1.55,1.62-2.28,3.17-1.88l21.78,5.54-.44,1.73c-.38,1.5-1.66,2.26-3.17,1.88l-7.13-1.81-6.51,25.64c-.39,1.55-1.66,2.27-3.17,1.88l-2.57-.65,7.16-28.16Z"/>
        <path class="cls-2" d="M591.36,342.52c-.4,0-.8-.05-1.21-.16l-4.28-1.08,7.16-28.16-9.56-2.43.88-3.44c.63-2.49,2.82-3.78,5.31-3.16l23.5,5.97-.87,3.44c-.63,2.46-2.86,3.78-5.32,3.16l-5.41-1.38-6.08,23.92c-.3,1.2-1,2.17-1.96,2.74-.64.38-1.37.57-2.14.57ZM590.16,338.72l.85.22c.17.04.47.09.67-.03.2-.12.3-.41.34-.57l6.95-27.35,8.84,2.25c.57.14.88-.04,1.02-.61h0s-20.07-5.12-20.07-5.12c-.6-.15-.86,0-1.02.61h0s9.56,2.44,9.56,2.44l-7.16,28.16Z"/>
      </g>
      <g>
        <path class="cls-2" d="M615.9,313.03l21.97,8.45-.67,1.75c-.57,1.49-1.75,2.02-3.29,1.43l-14.67-5.64-3.72,9.68,13.44,5.17-.64,1.66c-.59,1.54-1.77,2.06-3.31,1.47l-11.05-4.25-3.57,9.3,14.63,5.63c1.49.57,2.06,1.92,1.5,3.37l-.64,1.66-21.97-8.45,12.01-31.22Z"/>
        <path class="cls-2" d="M626.88,354.99l-25.27-9.72,13.28-34.52,25.27,9.72-1.31,3.4c-.57,1.49-1.53,2.17-2.23,2.48-.69.3-1.84.54-3.35-.04l-13.02-5.01-2.45,6.39,13.44,5.17-1.28,3.31c-.58,1.52-1.54,2.2-2.23,2.51-.7.31-1.84.56-3.36-.03l-9.4-3.62-2.31,6,12.98,4.99c1.15.44,2.04,1.25,2.49,2.28.46,1.03.46,2.23.02,3.38l-1.27,3.31ZM606.18,343.24l18.67,7.18v-.02c.07-.16.15-.45.06-.67-.09-.22-.37-.35-.53-.41l-16.28-6.26,4.84-12.6,12.7,4.88c.35.13.57.14.65.1.09-.04.23-.21.37-.55h0s-13.43-5.18-13.43-5.18l4.99-12.98,16.32,6.28c.35.13.57.13.66.1.08-.04.22-.19.34-.51l.04-.1-18.67-7.18-10.74,27.93Z"/>
      </g>
      <g>
        <path class="cls-2" d="M643.41,324.25l2.39,1.26c1.37.73,1.83,2.11,1.08,3.52l-12.37,23.39,12.81,6.77c1.37.73,1.81,2.15,1.09,3.52l-.83,1.57-19.8-10.46,15.63-29.58Z"/>
        <path class="cls-2" d="M648.31,366.68l-22.92-12.11,17.29-32.7,3.95,2.09c2.28,1.2,3.02,3.63,1.82,5.91l-11.54,21.83,11.25,5.94c2.24,1.18,3.01,3.67,1.82,5.91l-1.66,3.14ZM630.17,353.09l16.67,8.81h0c.27-.52.16-.88-.35-1.15l-14.37-7.6,13.19-24.96c.28-.53.18-.85-.35-1.13l-.82-.43-13.98,26.45Z"/>
      </g>
      <g>
        <path class="cls-2" d="M667.65,337.6l19.36,13.38-1.07,1.54c-.91,1.32-2.18,1.55-3.54.61l-12.93-8.94-5.9,8.53,11.84,8.19-1.01,1.47c-.94,1.35-2.21,1.58-3.56.65l-9.73-6.73-5.67,8.2,12.89,8.92c1.31.91,1.54,2.35.66,3.62l-1.01,1.47-19.36-13.39,19.03-27.52Z"/>
        <path class="cls-2" d="M668.43,380.97l-22.27-15.4,21.04-30.42,22.27,15.4-2.07,3c-1.48,2.14-3.83,2.56-5.99,1.06l-11.48-7.94-3.89,5.62,11.84,8.19-2.02,2.92c-1.5,2.16-3.86,2.59-6.02,1.1l-8.28-5.73-3.66,5.29,11.44,7.91c2.08,1.44,2.55,4,1.11,6.08l-2.02,2.92ZM651.08,364.67l16.45,11.38h.01c.34-.51.28-.83-.21-1.18l-14.34-9.92,7.67-11.1,11.19,7.74c.55.38.73.35,1.1-.2h0s-11.84-8.2-11.84-8.2l7.91-11.44,14.39,9.95c.58.4.74.32,1.08-.16l.06-.09-16.45-11.37-17.02,24.61Z"/>
      </g>
      <g>
        <path class="cls-2" d="M670.24,375.28l1.95-.46c1.53-.41,2.61.37,3.18,1.93.96,2.83,2.6,5.65,4.95,7.75,3.54,3.17,6.91,3.37,9.05.99,2.59-2.89.18-6.09-2.57-9.79-2.44-3.23-8.23-9.71-3.14-15.39,5.09-5.68,11.85-2.75,15.9.88,3.64,3.26,5.49,6.95,6.28,10.78l-1.92.43c-1.53.41-2.7-.34-3.3-1.79-.98-2.47-2.29-4.5-4.26-6.27-2.07-1.86-5.9-3.75-8.64-.69-2.65,2.96,1.14,7.22,3.44,10.2,3.12,3.9,7.28,9.4,2.25,15.02-4.45,4.97-10.46,4-15.93-.91-4.59-4.12-6.44-8.28-7.23-12.67Z"/>
        <path class="cls-2" d="M686.59,393.92c-.3,0-.61-.01-.92-.04-3.07-.26-6.32-1.85-9.38-4.6-4.33-3.88-6.81-8.23-7.79-13.68l-.3-1.65,3.58-.85c2.31-.61,4.33.55,5.24,3.04.97,2.83,2.55,5.32,4.47,7.04,1.26,1.13,4.43,3.5,6.55,1.13,1.47-1.64.39-3.45-2.63-7.5l-.62-.81c-2.65-3.41-8.15-10.52-2.46-16.87,2.69-3.01,6.14-4.25,9.95-3.62,3.84.65,6.94,3.01,8.44,4.36,3.64,3.26,5.88,7.1,6.84,11.74l.35,1.7-3.61.81c-2.24.61-4.36-.51-5.32-2.84-.93-2.35-2.14-4.13-3.8-5.63-.63-.57-3.93-3.29-6.15-.83-1.33,1.49.53,4.12,2.91,7.16l.61.78c2.9,3.62,8.32,10.4,2.16,17.27-2.28,2.55-5.07,3.87-8.13,3.87ZM672.34,376.61c1.01,3.92,3,7.06,6.31,10.04,2.49,2.23,5.02,3.52,7.32,3.71,2.29.19,4.35-.7,6.11-2.67,3.85-4.29,1.23-8.31-2.31-12.73l-.61-.78c-2.46-3.14-6.18-7.88-2.77-11.7,3.23-3.61,7.92-2.33,11.14.55,2.09,1.88,3.59,4.08,4.72,6.94.39.95.88.81,1.2.74l.21-.05c-.95-3.13-2.7-5.81-5.3-8.14-2.08-1.86-4.51-3.14-6.67-3.5-2.63-.44-4.83.37-6.73,2.49-3.44,3.84-.59,8.2,2.62,12.34l.61.8c2.85,3.82,6.02,8.08,2.48,12.03-2.87,3.2-7.4,2.86-11.54-.85-3.03-2.72-4.64-6.12-5.45-8.5-.36-.97-.71-.88-1.05-.79l-.31.07Z"/>
      </g>
      <path class="cls-2" d="M728.05,392.3l1.01,1.3-16.15,33.68-2.3-2.96c-.81-1.04-.96-2.27-.38-3.47l2.25-4.47-10.54-13.51-4.91,1.05c-1.27.3-2.45-.17-3.27-1.22l-2.28-2.92,36.58-7.48ZM714.53,412.63l7.36-14.49-15.82,3.64,8.46,10.85Z"/>
      <path class="cls-2" d="M742.52,412.11l6.29,11.4c4.81,8.72,2.97,17.41-6.59,22.68-9.52,5.25-17.91,2.25-22.7-6.53l-6.29-11.4,29.29-16.15ZM723.11,437.1c2.16,3.92,7.46,9.46,16.5,4.47,9.08-5.01,7.29-12.52,5.15-16.4l-3.51-6.36-21.65,11.93,3.51,6.36Z"/>
      <path class="cls-2" d="M758.25,441.07l1.3,3.47c.5,1.33.22,2.55-.79,3.51l-17.09,16.4,23.72,1.33c1.39.07,2.4.81,2.88,2.09l1.26,3.38-36.71-2.66-.54-1.46,25.97-26.06Z"/>
      <path class="cls-2" d="M754.06,477.44c9.35-1.96,18.5,3.35,20.59,13.28,2.09,9.97-4.13,18.57-13.48,20.53-9.39,1.97-18.51-3.4-20.6-13.37-2.09-9.93,4.1-18.47,13.5-20.44ZM744.99,496.95c1.42,6.75,8.21,10.6,15.09,9.16,6.75-1.42,11.55-7.71,10.13-14.46-1.41-6.71-8.28-10.5-15.08-9.07-6.84,1.44-11.56,7.66-10.15,14.37Z"/>
      <path class="cls-2" d="M761.53,515.73c9.73-.4,17.64,6.33,18.05,16.51.28,6.76-2.5,11.49-7,14.51l-1.24-2.33c-.74-1.39-.28-2.28.6-3.32,2.02-2.19,3.27-4.98,3.12-8.68-.3-7.49-6.33-11.73-13.32-11.44-6.98.29-12.65,5.04-12.34,12.67.17,4.11,1.67,6.24,3.86,8.21.9.92,1.35,1.82.73,3.35l-.96,2.37c-4.67-2.46-7.85-6.31-8.16-13.94-.41-10.18,6.92-17.52,16.65-17.92Z"/>
      <path class="cls-2" d="M777.67,566.54l-.19,1.64-35.14,12.72.43-3.72c.15-1.32.91-2.29,2.16-2.74l4.74-1.62,1.95-17.03-4.24-2.69c-1.12-.68-1.63-1.84-1.48-3.16l.42-3.68,31.35,20.3ZM753.77,571.58l15.41-5.18-13.84-8.49-1.57,13.67Z"/>
      <path class="cls-2" d="M758.77,582.76c9.4,2.53,14.94,11.3,12.29,21.14-1.76,6.53-5.82,10.22-11.02,11.75l-.48-2.59c-.29-1.54.42-2.25,1.56-2.99,2.57-1.48,4.61-3.77,5.57-7.35,1.95-7.24-2.54-13.08-9.29-14.9-6.75-1.82-13.57,1.03-15.56,8.4-1.07,3.97-.27,6.46,1.22,8.99.59,1.15.75,2.14-.31,3.42l-1.62,1.98c-3.72-3.75-5.6-8.37-3.62-15.74,2.65-9.84,11.84-14.65,21.24-12.12Z"/>
      <path class="cls-2" d="M735.23,613.11l28.57,11.14-.96,2.47c-.56,1.45-1.88,2.06-3.37,1.48l-28.74-11.21.96-2.47c.6-1.53,1.88-2.06,3.54-1.41Z"/>
      <path class="cls-2" d="M752.78,649.03l-.76,1.46-37.35-.59,1.72-3.33c.61-1.18,1.66-1.82,2.99-1.8l5,.17,7.87-15.22-3.01-4.03c-.8-1.03-.87-2.3-.26-3.48l1.7-3.29,22.09,30.1ZM728.66,645.25l16.24.63-9.92-12.85-6.32,12.21Z"/>
    </g>
    <g>
      <path class="cls-2" d="M697.46,714.14l7.39-6.54,1.18,1.34c1.06,1.2.97,2.62-.23,3.68l-16.85,14.89-1.18-1.34c-1.03-1.17-.94-2.65.23-3.68l5.52-4.87-17.53-19.83c-1.06-1.2-.94-2.65.23-3.68l1.99-1.75,19.25,21.78Z"/>
      <g>
        <path class="cls-2" d="M677.73,735.49l-1.35.94-32.79-17.91,3.07-2.14c1.09-.76,2.32-.84,3.48-.2l4.35,2.48,14.05-9.81-.79-4.97c-.23-1.29.3-2.44,1.39-3.2l3.03-2.12,5.55,36.92ZM658.13,720.91l14.08,8.12-2.8-15.99-11.28,7.87Z"/>
        <path class="cls-2" d="M676.49,738.51l-36.25-19.8,5.41-3.78c1.64-1.15,3.59-1.26,5.34-.31l3.41,1.94,12.23-8.54-.62-3.87c-.34-1.9.45-3.76,2.12-4.92l5.37-3.75,6.13,40.83-3.15,2.19ZM646.94,718.34l28.78,15.72-4.87-32.41-.7.49c-.54.38-.76.86-.66,1.44l.97,6.09-15.88,11.08-5.32-3.03c-.54-.3-1.06-.26-1.6.12l-.73.51ZM674.61,732.45l-19.77-11.39,15.83-11.05,3.94,22.45ZM661.43,720.77l8.4,4.84-1.67-9.53-6.73,4.69Z"/>
      </g>
      <g>
        <path class="cls-2" d="M657.11,748.98l-1.65.79-29.91-11.24,8.87,18.39c.71,1.48.23,2.88-1.26,3.6l-2.31,1.11-14.52-30.12,1.69-.81,29.87,11.26-8.87-18.39c-.71-1.48-.22-2.88,1.22-3.58l2.34-1.13,14.52,30.13Z"/>
        <path class="cls-2" d="M630.03,763.99l-16.06-33.31,3.96-1.91,26.45,9.97-6.95-14.41c-.56-1.15-.65-2.34-.28-3.43.37-1.08,1.19-1.97,2.32-2.51l3.93-1.9,16.06,33.31-3.92,1.89-26.49-9.95,6.95,14.42c.56,1.16.65,2.35.27,3.44-.38,1.09-1.19,1.96-2.35,2.52l-3.9,1.88ZM618.99,732.95l12.69,26.32.71-.35c.17-.08.46-.25.55-.5.09-.25-.04-.57-.12-.74l-10.78-22.37,32.39,12.17-12.67-26.28-.75.36c-.19.09-.43.25-.51.47-.06.19-.02.45.12.74l10.79,22.37-32.42-12.22Z"/>
      </g>
      <g>
        <path class="cls-2" d="M609.12,768.89l-1.58.47-25.5-27.31,3.59-1.07c1.27-.38,2.46-.07,3.37.9l3.35,3.72,16.42-4.89.81-4.96c.18-1.3,1.05-2.22,2.33-2.6l3.55-1.06-6.34,36.8ZM595.1,748.89l10.82,12.13,2.37-16.06-13.18,3.93Z"/>
        <path class="cls-2" d="M607,771.36l-28.19-30.19,6.32-1.88c1.92-.57,3.8-.06,5.16,1.39l2.63,2.92,14.29-4.26.63-3.87c.27-1.92,1.61-3.43,3.57-4.01l6.27-1.87-7.01,40.69-3.68,1.09ZM585.28,742.93l22.38,23.97,5.57-32.3-.81.24c-.64.19-1,.58-1.08,1.15l-1,6.09-18.56,5.53-4.1-4.55c-.42-.45-.92-.58-1.55-.39l-.86.26ZM607.11,765.02l-15.18-17.03,18.5-5.52-3.32,22.55ZM598.27,749.78l6.45,7.23,1.41-9.58-7.86,2.34Z"/>
      </g>
      <g>
        <path class="cls-2" d="M585.39,775.2l-1.81.24-24.89-20.05,2.66,20.25c.21,1.63-.69,2.81-2.32,3.02l-2.54.33-4.36-33.16,1.86-.25,24.85,20.06-2.66-20.25c-.21-1.63.69-2.81,2.28-3.02l2.58-.34,4.36,33.16Z"/>
        <path class="cls-2" d="M554.96,780.98l-4.82-36.67,4.36-.58,22,17.76-2.09-15.87c-.34-2.61,1.22-4.66,3.8-5l4.34-.57,4.82,36.67-4.32.57-22.04-17.76,2.09,15.88c.34,2.6-1.24,4.66-3.84,5.01l-4.29.56ZM554.2,748.03l3.81,28.98.78-.1c.66-.09.89-.38.8-1.04l-3.23-24.63,26.95,21.71-3.8-28.94-.83.11c-.45.06-.86.23-.75,1.04l3.24,24.63-26.96-21.76Z"/>
      </g>
      <g>
        <path class="cls-2" d="M537.84,754.06c-.39,5.33-4.46,7.69-7.71,9.46,1.87,2.57,3.3,4.92,3.06,8.29-.36,4.83-4.51,7.73-9.3,7.38-5.47-.4-8.31-4.1-7.99-8.47.32-4.33,3.8-6.87,7.66-8.78l-5.55-6.78c-.8.86-1.75,1.93-2.81,3.37-1.06,1.39-2.44,1.42-3.66.6l-1.31-.88c1.29-2.01,3.41-4.65,5.11-6.5l-5.01-6.01,1.33-1.18c1.03-.93,2.58-.82,3.46.25l3.41,4.1c3.91-3.97,7.69-4.29,10.52-4.08,5.2.38,9.21,3.79,8.81,9.22ZM526.1,765.47c-2.18,1.03-5.4,2.35-5.59,5.59-.16,2.78,1.71,4.16,3.76,4.31,1.73.13,3.96-.85,4.17-3.77.18-2.46-.98-4.15-2.34-6.13ZM528.23,749c-2.37-.17-4.75.98-7.02,3.24l6.47,7.9c1.33-.68,5.29-2.22,5.57-6,.21-2.78-1.93-4.91-5.03-5.14Z"/>
        <path class="cls-2" d="M524.68,780.99c-.3,0-.61-.01-.92-.03-6.08-.45-10.04-4.71-9.62-10.36.33-4.56,3.59-7.37,6.69-9.19l-2.88-3.51c-.42.49-.87,1.06-1.34,1.7-1.57,2.05-3.94,2.44-6.07,1.01l-2.75-1.83.94-1.46c1.15-1.79,2.82-3.91,4.26-5.58l-5.13-6.15,2.6-2.32c.85-.77,1.95-1.14,3.09-1.07,1.14.08,2.17.62,2.91,1.52l2.22,2.67c4.01-3.31,7.84-3.49,10.48-3.29,3.03.22,5.73,1.37,7.61,3.22,2.08,2.05,3.06,4.78,2.83,7.89l-1.76-.13,1.76.13c-.39,5.33-3.97,8.16-6.91,9.92,1.44,2.2,2.5,4.6,2.26,7.83-.39,5.29-4.73,9.05-10.27,9.05ZM518.1,752.47l8.24,10.06-1.99.99c-4.47,2.22-6.47,4.41-6.68,7.33-.27,3.69,2.22,6.27,6.36,6.58,3.45.24,7.1-1.64,7.4-5.75.19-2.6-.77-4.44-2.72-7.12l-1.19-1.63,1.77-.97c3.54-1.93,6.49-3.87,6.79-8.04.15-2.05-.47-3.81-1.78-5.11-1.28-1.27-3.2-2.05-5.39-2.21-2.45-.18-5.69.06-9.13,3.56l-1.37,1.39-4.66-5.6c-.16-.19-.33-.24-.45-.25-.11-.02-.29.01-.47.17l-.06.05,4.91,5.88-1.05,1.14c-1.35,1.47-2.81,3.26-3.93,4.82.51.27.77.11,1.09-.32,1.15-1.54,2.16-2.68,2.92-3.49l1.38-1.49ZM524.56,777.15c-.14,0-.29,0-.43-.02-3.37-.25-5.59-2.78-5.39-6.17.24-4.11,3.99-5.87,6.23-6.92l1.72-.81.85,1.23c1.42,2.05,2.88,4.17,2.65,7.27-.17,2.33-1.3,3.63-2.23,4.31-.96.71-2.18,1.1-3.41,1.1ZM525.48,767.73c-1.81.91-3.11,1.86-3.21,3.44-.11,1.98,1.28,2.38,2.12,2.44.53.02,1.08-.11,1.47-.4.48-.36.75-.94.81-1.74.1-1.37-.34-2.41-1.19-3.74ZM527.22,762.36l-8.4-10.24,1.14-1.13c2.72-2.7,5.57-3.95,8.4-3.75h0c4.07.3,6.93,3.32,6.66,7.03-.33,4.45-4.4,6.42-6.14,7.26l-1.66.84ZM523.65,752.43l4.51,5.5c1.65-.87,3.19-2.01,3.33-3.92.13-1.78-1.23-3.08-3.4-3.24-1.44-.12-2.92.46-4.45,1.67Z"/>
      </g>
      <g>
        <path class="cls-2" d="M484.34,768.07l9.56,2.45-.44,1.72c-.4,1.55-1.62,2.27-3.17,1.88l-21.77-5.58.44-1.73c.39-1.51,1.67-2.26,3.17-1.88l7.12,1.83,6.57-25.62c.4-1.55,1.67-2.26,3.17-1.87l2.57.66-7.22,28.15Z"/>
        <path class="cls-2" d="M491.1,776c-.41,0-.83-.06-1.25-.16l-23.48-6.02.88-3.44c.63-2.45,2.87-3.78,5.32-3.15l5.41,1.39,6.13-23.91c.64-2.49,2.83-3.79,5.33-3.15l4.28,1.1-7.22,28.15,9.56,2.45-.88,3.44c-.31,1.23-.99,2.18-1.96,2.75-.63.37-1.34.56-2.1.56ZM470.66,767.26l20.06,5.15c.3.08.54.07.68-.02.2-.12.3-.42.34-.59h0s-9.56-2.46-9.56-2.46l7.22-28.15-.85-.22c-.58-.15-.87.02-1.02.6l-7.01,27.33-8.84-2.27c-.55-.14-.88.04-1.02.6h0Z"/>
      </g>
      <g>
        <path class="cls-2" d="M463.6,766.83l-21.95-8.5.68-1.75c.58-1.49,1.76-2.01,3.29-1.42l14.66,5.68,3.75-9.68-13.43-5.2.64-1.66c.6-1.53,1.78-2.06,3.31-1.46l11.04,4.27,3.6-9.29-14.62-5.66c-1.49-.58-2.05-1.92-1.49-3.37l.64-1.66,21.95,8.5-12.08,31.2Z"/>
        <path class="cls-2" d="M464.61,769.12l-25.25-9.78,1.32-3.4c.58-1.49,1.53-2.17,2.23-2.47.69-.3,1.84-.54,3.35.04l13.01,5.04,2.47-6.38-13.43-5.2,1.28-3.31c.95-2.45,3.15-3.42,5.6-2.47l9.39,3.64,2.32-5.99-12.97-5.02c-1.16-.45-2.05-1.27-2.5-2.3-.44-1.02-.44-2.21,0-3.35l1.28-3.31,25.25,9.78-13.36,34.5ZM443.94,757.32l18.65,7.22,10.8-27.9-18.65-7.22h0c-.06.17-.15.46-.05.68.09.21.34.34.53.41l16.27,6.3-4.87,12.59-12.69-4.91c-.62-.24-.78-.17-1.03.45h0s13.43,5.21,13.43,5.21l-5.02,12.97-16.31-6.31c-.35-.13-.58-.14-.66-.1-.09.04-.22.19-.34.51l-.04.1Z"/>
      </g>
      <g>
        <path class="cls-2" d="M436.12,755.55l-2.38-1.27c-1.37-.73-1.83-2.11-1.08-3.52l12.42-23.37-12.79-6.8c-1.37-.73-1.81-2.15-1.08-3.52l.84-1.57,19.77,10.51-15.7,29.54Z"/>
        <path class="cls-2" d="M436.85,757.94l-3.94-2.1c-1.08-.57-1.86-1.47-2.19-2.54-.34-1.08-.2-2.28.38-3.38l11.59-21.81-11.23-5.97c-2.24-1.19-3-3.67-1.81-5.91l1.67-3.13,22.9,12.17-17.36,32.66ZM432.77,717.89h0c-.27.52-.16.88.35,1.15l14.35,7.63-13.25,24.93c-.1.18-.2.44-.13.66.05.17.22.34.48.47l.82.44,14.04-26.42-16.65-8.85Z"/>
      </g>
      <g>
        <path class="cls-2" d="M411.91,742.15l-19.33-13.43,1.07-1.54c.91-1.31,2.19-1.54,3.54-.6l12.91,8.97,5.92-8.52-11.82-8.21,1.02-1.46c.94-1.35,2.21-1.58,3.56-.64l9.72,6.75,5.68-8.18-12.87-8.94c-1.31-.91-1.54-2.35-.65-3.63l1.01-1.46,19.33,13.43-19.09,27.47Z"/>
        <path class="cls-2" d="M412.35,744.61l-22.23-15.45,2.08-2.99c1.48-2.14,3.84-2.55,6-1.05l11.46,7.96,3.9-5.62-11.82-8.22,2.03-2.91c.92-1.33,2.01-1.77,2.76-1.91.75-.14,1.92-.1,3.26.83l8.27,5.75,3.67-5.28-11.42-7.94c-2.08-1.45-2.54-4.01-1.09-6.09l2.02-2.92,22.23,15.45-21.1,30.38ZM395.04,728.27l16.43,11.41,17.07-24.57-16.43-11.41h0c-.35.51-.29.83.21,1.18l14.32,9.95-7.7,11.09-11.17-7.76c-.31-.21-.53-.27-.61-.25-.09.02-.27.14-.49.45h-.01s11.82,8.23,11.82,8.23l-7.94,11.42-14.37-9.98c-.57-.4-.74-.33-1.08.16l-.06.09Z"/>
      </g>
      <g>
        <path class="cls-2" d="M409.41,704.46l-1.95.46c-1.53.4-2.61-.38-3.17-1.94-.96-2.83-2.59-5.65-4.94-7.76-3.53-3.18-6.9-3.39-9.04-1.01-2.6,2.89-.2,6.09,2.55,9.8,2.43,3.23,8.21,9.73,3.11,15.39-5.1,5.67-11.86,2.73-15.9-.91-3.63-3.27-5.48-6.96-6.26-10.8l1.92-.43c1.53-.4,2.7.34,3.3,1.8.97,2.47,2.28,4.51,4.24,6.28,2.07,1.86,5.89,3.76,8.64.71,2.66-2.96-1.12-7.22-3.42-10.2-3.12-3.91-7.26-9.42-2.21-15.02,4.46-4.96,10.47-3.98,15.93.94,4.58,4.13,6.42,8.3,7.2,12.69Z"/>
        <path class="cls-2" d="M389.25,724.34c-.63,0-1.28-.06-1.94-.17-3.84-.65-6.93-3.02-8.43-4.37-3.64-3.27-5.86-7.12-6.81-11.76l-.35-1.7,3.61-.8c2.26-.59,4.37.52,5.32,2.86.92,2.35,2.12,4.13,3.79,5.63.64.57,3.92,3.3,6.15.84,1.34-1.49-.52-4.13-2.9-7.17l-.6-.77c-2.89-3.62-8.3-10.42-2.13-17.28,4.84-5.37,11.9-5.07,18.43.81,4.32,3.89,6.79,8.24,7.76,13.69l.3,1.65-3.58.84c-2.31.61-4.33-.56-5.24-3.05-.68-2.02-2-4.84-4.46-7.05-1.26-1.13-4.42-3.51-6.55-1.14-1.47,1.64-.39,3.45,2.62,7.51l.61.8c2.64,3.42,8.13,10.54,2.42,16.88-2.24,2.48-4.98,3.76-8.02,3.76ZM375.95,709.02c.95,3.13,2.69,5.82,5.29,8.15,2.07,1.87,4.5,3.15,6.66,3.52,2.63.45,4.83-.36,6.74-2.48,3.45-3.83.61-8.2-2.59-12.35l-.61-.8c-2.84-3.83-6.01-8.1-2.45-12.04,2.87-3.19,7.4-2.84,11.54.88,3.03,2.72,4.62,6.13,5.43,8.51.36.98.71.89,1.05.79l.31-.07c-1-3.92-2.98-7.07-6.29-10.05-2.97-2.67-8.66-6.37-13.44-1.07-3.86,4.29-1.25,8.31,2.28,12.74l.6.77c2.46,3.15,6.18,7.9,2.75,11.71-3.25,3.6-7.93,2.31-11.14-.58-2.09-1.88-3.59-4.09-4.71-6.95-.39-.95-.88-.82-1.2-.74l-.21.05Z"/>
      </g>
      <path class="cls-2" d="M351.63,687.32l-1.01-1.3,16.23-33.65,2.3,2.96c.81,1.05.95,2.27.37,3.47l-2.26,4.47,10.51,13.54,4.92-1.04c1.27-.3,2.45.18,3.26,1.22l2.27,2.92-36.59,7.4ZM365.2,667.01l-7.39,14.47,15.83-3.61-8.43-10.87Z"/>
      <path class="cls-2" d="M337.21,667.47l-6.26-11.42c-4.79-8.73-2.93-17.41,6.65-22.66,9.53-5.23,17.91-2.21,22.68,6.58l6.26,11.42-29.32,16.08ZM356.67,642.52c-2.15-3.93-7.44-9.47-16.49-4.51-9.09,4.99-7.32,12.51-5.19,16.39l3.49,6.37,21.68-11.89-3.49-6.37Z"/>
      <path class="cls-2" d="M321.54,638.47l-1.29-3.47c-.49-1.33-.22-2.55.79-3.51l17.13-16.36-23.72-1.38c-1.39-.07-2.4-.81-2.88-2.1l-1.26-3.39,36.71,2.74.54,1.46-26.03,26Z"/>
      <path class="cls-2" d="M325.81,602.12c-9.35,1.94-18.49-3.39-20.56-13.33-2.07-9.98,4.17-18.56,13.52-20.5,9.4-1.95,18.5,3.44,20.57,13.42,2.07,9.93-4.15,18.46-13.54,20.41ZM334.92,582.63c-1.4-6.75-8.18-10.62-15.07-9.19-6.76,1.4-11.57,7.68-10.16,14.44,1.39,6.71,8.25,10.52,15.06,9.1,6.84-1.42,11.58-7.63,10.18-14.35Z"/>
      <path class="cls-2" d="M318.43,563.81c-9.73.37-17.62-6.36-18.01-16.55-.26-6.76,2.53-11.48,7.03-14.49l1.23,2.33c.74,1.39.27,2.28-.6,3.32-2.02,2.18-3.28,4.97-3.14,8.67.29,7.49,6.3,11.74,13.29,11.47,6.98-.27,12.66-5.01,12.36-12.64-.16-4.11-1.66-6.25-3.84-8.22-.9-.93-1.35-1.82-.72-3.36l.96-2.37c4.67,2.47,7.84,6.33,8.13,13.96.39,10.18-6.96,17.51-16.69,17.88Z"/>
      <path class="cls-2" d="M302.41,512.96l.19-1.63,35.17-12.64-.43,3.72c-.16,1.32-.91,2.29-2.16,2.74l-4.74,1.61-1.99,17.03,4.24,2.7c1.11.68,1.62,1.85,1.47,3.16l-.43,3.68-31.31-20.37ZM326.32,507.98l-15.42,5.15,13.82,8.52,1.6-13.67Z"/>
      <path class="cls-2" d="M321.34,496.79c-9.39-2.55-14.91-11.34-12.24-21.17,1.77-6.53,5.85-10.2,11.04-11.73l.48,2.59c.29,1.54-.42,2.25-1.57,2.98-2.58,1.48-4.62,3.76-5.59,7.33-1.96,7.23,2.51,13.08,9.25,14.92,6.75,1.83,13.57-1,15.57-8.37,1.08-3.97.29-6.45-1.2-8.99-.59-1.15-.74-2.14.31-3.42l1.63-1.97c3.71,3.75,5.58,8.38,3.58,15.74-2.67,9.83-11.88,14.62-21.27,12.07Z"/>
      <path class="cls-2" d="M344.95,466.49l-28.54-11.21.97-2.47c.57-1.45,1.89-2.06,3.38-1.47l28.71,11.27-.97,2.47c-.6,1.53-1.89,2.06-3.55,1.41Z"/>
      <path class="cls-2" d="M327.48,430.53l.76-1.46,37.34.68-1.73,3.32c-.61,1.18-1.66,1.81-2.99,1.79l-5-.18-7.91,15.2,3,4.03c.8,1.03.86,2.3.25,3.48l-1.71,3.28-22.02-30.15ZM351.59,434.37l-16.24-.67,9.89,12.87,6.35-12.2Z"/>
    </g>
  </g>
  <g>
    <path class="cls-1" d="M580.73,540.53l-.31,92.07,14.86-20.27.21-62.8,45.72.15,10.25-13.98-65.66-.22c-1,0-5.07,4.05-5.08,5.04Z"/>
    <path class="cls-1" d="M494.72,535.18h-.24c-.11-.05-.21-.08-.29-.08l-11.44.04-51.68-.17.25.34h-2.78s10.25,13.99,10.25,13.99l43.97-.15h1.76s.21,62.8.21,62.8l14.86,20.27-.06-18.11.25-73.86c0-.99-4.05-5.07-5.04-5.08Z"/>
    <path class="cls-1" d="M687.32,486.8l10.83-14.77-114.46-.38c-16.42,1.43-31.25,7.58-43.56,18.47-.39-.38-.79-.74-1.18-1.12v-.05c-.13-.12-.27-.22-.41-.34-8.69-8.01-19.53-13.04-31.01-15.57-3.65-.85-7.39-1.45-11.22-1.78l-6.72.02-104.66-.32.48.66h-3.55s10.83,14.79,10.83,14.79l90.3-.34,14.27.04c2.01.23,4.02.56,6.02.97,9.72,2.1,19.14,6.23,26.11,13.38l-7.51,15.63c-6.41-6.01-15.02-11.78-23.93-12.81-.32-.06-.58-.1-.75-.1l-14.47.05-74.73-.25.36.5h-3.17s10.76,14.69,10.76,14.69l66.98-.1,13.87.07c10.51,2.15,18.28,10.47,19.62,21.15l.23,74.84-.14,39.36.26.37v1.85s14.86,20.26,14.86,20.26l-.21-61.82.26-78.44c.02-4.84,4.91-16.97,7.48-21.41.46-.8-.03-1.95,1.54-1.54.45.12,3.64,7.23,4.08,8.38,1.16,3.03,4.04,11.83,4.03,14.62l-.47,140.59,14.85-20.26.36-116.42c1.36-10.82,9.31-19.23,20.02-21.24l80.45.12,10.76-14.68-92.01-.31c-1.54,0-10,2.86-11.83,3.71-4.8,2.24-8.72,6.11-12.73,9.44l-7.62-15.87c8.43-8.64,20.43-12.89,32.21-14.44l104.49.4Z"/>
  </g>
</svg>