<?xml version="1.0" encoding="UTF-8"?>
<svg id="Camada_1" data-name="Camada 1" xmlns="http://www.w3.org/2000/svg" viewBox="0 0 1080 1080">
  <defs>
    <style>
      .cls-1 {
        fill: #e8ddce;
      }
    </style>
  </defs>
  <g>
    <g>
      <path class="cls-1" d="M553.73,445.28h-21.98v-3.97c0-3.56,2.24-5.8,5.8-5.8h50.06v3.97c0,3.46-2.34,5.8-5.8,5.8h-16.38v58.92c0,3.56-2.34,5.8-5.8,5.8h-5.9v-64.72Z"/>
      <path class="cls-1" d="M611.73,435.51h3.66l37.04,74.48h-8.34c-2.95,0-5.29-1.42-6.61-4.07l-4.78-10.07h-38.16l-4.88,10.07c-1.22,2.65-3.66,4.07-6.61,4.07h-8.24l36.94-74.48ZM628.92,487.1l-15.36-32.76-15.26,32.76h30.63Z"/>
      <path class="cls-1" d="M657.31,435.51h4.07l49.15,51.49v-45.48c0-3.66,2.34-6,6-6h5.7v74.48h-4.17l-49.04-51.49v45.48c0,3.66-2.34,6-5.9,6h-5.8v-74.48Z"/>
      <path class="cls-1" d="M764.05,435.51h3.66l37.04,74.48h-8.34c-2.95,0-5.29-1.42-6.61-4.07l-4.78-10.07h-38.16l-4.88,10.07c-1.22,2.65-3.66,4.07-6.61,4.07h-8.24l36.94-74.48ZM781.25,487.1l-15.36-32.76-15.26,32.76h30.63Z"/>
      <path class="cls-1" d="M809.64,435.51h4.07l49.15,51.49v-45.48c0-3.66,2.34-6,6-6h5.7v74.48h-4.17l-49.04-51.49v45.48c0,3.66-2.34,6-5.9,6h-5.8v-74.48Z"/>
      <path class="cls-1" d="M536.12,581.51c0-11.9,8.65-17.81,15.57-22.28-4.58-5.39-8.14-10.38-8.14-17.91,0-10.79,8.75-17.91,19.43-17.91,12.21,0,19.13,7.73,19.13,17.5s-7.33,15.87-15.57,20.76l13.43,14.14c1.63-2.03,3.56-4.58,5.7-7.94,2.14-3.26,5.19-3.56,8.04-1.93l3.05,1.73c-2.54,4.68-6.82,10.89-10.28,15.26l12.11,12.52-2.75,2.85c-2.14,2.24-5.6,2.24-7.73,0l-8.24-8.55c-8.04,9.46-16.38,10.79-22.69,10.79-11.6,0-21.06-6.92-21.06-19.03ZM558.31,591.17c5.29,0,10.38-2.95,15.06-8.34l-15.67-16.48c-2.85,1.73-11.4,5.8-11.4,14.25,0,6.21,5.09,10.58,12.01,10.58ZM560.34,554.24c4.68-2.65,11.6-6.1,11.5-13.33-.1-6.21-4.48-8.95-9.06-8.95-3.87,0-8.65,2.54-8.65,9.06,0,5.5,2.85,9.06,6.21,13.23Z"/>
      <path class="cls-1" d="M620.17,534.5h-21.98v-3.97c0-3.56,2.24-5.8,5.8-5.8h50.06v3.97c0,3.46-2.34,5.8-5.8,5.8h-16.38v58.92c0,3.56-2.34,5.8-5.8,5.8h-5.9v-64.72Z"/>
      <path class="cls-1" d="M658.84,524.73h52.4v4.17c0,3.56-2.03,5.6-5.7,5.6h-35v23.1h32.05v3.97c0,3.66-2.03,5.7-5.7,5.7h-26.35v22.18h34.9c3.56,0,5.8,2.34,5.8,5.8v3.97h-52.4v-74.48Z"/>
      <path class="cls-1" d="M718.16,524.73h6c3.46,0,5.8,2.24,5.8,5.8v58.92h32.26c3.46,0,5.8,2.34,5.8,5.8v3.97h-49.86v-74.48Z"/>
      <path class="cls-1" d="M773,524.73h52.4v4.17c0,3.56-2.03,5.6-5.7,5.6h-35v23.1h32.05v3.97c0,3.66-2.03,5.7-5.7,5.7h-26.35v22.18h34.9c3.56,0,5.8,2.34,5.8,5.8v3.97h-52.4v-74.48Z"/>
      <path class="cls-1" d="M826.43,590.46l2.54-3.66c1.93-2.95,4.88-3.26,8.14-1.53,5.8,3.26,12.72,5.5,19.74,5.5,10.58,0,16.48-4.68,16.48-11.8,0-8.65-8.75-10.38-18.82-12.41-8.85-1.73-28.08-3.87-28.08-20.86s15.57-22.18,27.68-22.18c10.89,0,19.44,3.36,26.46,8.55l-2.54,3.56c-1.93,2.95-4.99,3.46-8.14,1.93-5.29-2.65-10.48-4.07-16.38-4.07-6.21,0-15.36,2.54-15.36,11.7s12.62,10.28,20.86,11.8c10.99,1.83,26.05,4.78,26.05,21.57,0,14.86-11.4,22.18-27.78,22.18-13.74,0-23-4.17-30.83-10.28Z"/>
    </g>
    <g>
      <path class="cls-1" d="M536.79,643.82l9.91-26.96h3.59l10.01,26.96h-2.3l-9.48-25.95-9.53,25.95h-2.2ZM541.63,634.96l.43-1.92h12.93l.38,1.92h-13.74Z"/>
      <path class="cls-1" d="M599.73,638.58c-1.33,1.96-3.18,3.33-5.55,4.09-2.38.77-5.18,1.15-8.4,1.15h-6.99v-26.96h6.99c3.22,0,6.03.5,8.4,1.51,2.38,1.01,4.23,2.5,5.55,4.48,1.32,1.98,1.99,4.47,1.99,7.47,0,3.54-.66,6.3-1.99,8.26ZM584.38,641.91h1.77c1.98,0,3.78-.16,5.41-.48,1.63-.32,3.03-.9,4.21-1.75,1.18-.85,2.07-2.03,2.68-3.54.61-1.52.91-3.46.91-5.82,0-2.62-.54-4.77-1.63-6.46-1.09-1.69-2.62-2.95-4.6-3.78-1.98-.83-4.31-1.25-6.99-1.25h-5.17v23.08h3.4Z"/>
      <path class="cls-1" d="M637.97,616.86h2.39l-9.82,26.96h-3.69l-9.77-26.96h2.35l9.29,25.86,9.24-25.86Z"/>
      <path class="cls-1" d="M669.57,644.49c-4.21,0-7.42-1.27-9.62-3.81-2.2-2.54-3.3-5.96-3.3-10.27,0-2.84.48-5.31,1.44-7.4.96-2.09,2.39-3.72,4.31-4.88,1.92-1.17,4.31-1.75,7.18-1.75,4.21,0,7.41,1.27,9.6,3.81,2.19,2.54,3.28,5.95,3.28,10.22,0,2.78-.49,5.23-1.46,7.35-.98,2.12-2.41,3.77-4.31,4.95s-4.27,1.77-7.11,1.77ZM669.57,642.43c2.39,0,4.38-.5,5.96-1.51,1.58-1.01,2.78-2.41,3.59-4.21.81-1.8,1.22-3.9,1.22-6.3s-.39-4.53-1.17-6.32c-.78-1.79-1.98-3.18-3.59-4.17-1.61-.99-3.62-1.48-6.01-1.48-3.54,0-6.22,1.05-8.05,3.16-1.82,2.11-2.73,5.04-2.73,8.81,0,2.36.38,4.45,1.15,6.25.77,1.8,1.95,3.22,3.57,4.24,1.61,1.02,3.63,1.53,6.06,1.53Z"/>
      <path class="cls-1" d="M714.24,644.3c-2.46,0-4.67-.53-6.63-1.58-1.96-1.05-3.51-2.61-4.65-4.67-1.13-2.06-1.7-4.62-1.7-7.69s.56-5.68,1.68-7.76c1.12-2.07,2.67-3.63,4.67-4.67s4.27-1.56,6.82-1.56c2.11,0,3.97.38,5.6,1.15,1.63.77,2.99,1.87,4.09,3.33,1.1,1.45,1.84,3.23,2.23,5.34h-2.25c-.32-1.69-.93-3.12-1.84-4.29-.91-1.17-2.03-2.04-3.35-2.63-1.33-.59-2.82-.89-4.48-.89-3.38,0-6.06,1.02-8.02,3.06-1.96,2.04-2.94,4.98-2.94,8.81s.97,6.95,2.9,8.98,4.56,3.04,7.88,3.04c1.82,0,3.43-.3,4.84-.91,1.4-.61,2.54-1.48,3.42-2.63.88-1.15,1.46-2.55,1.75-4.21h2.35c-.38,2.07-1.12,3.84-2.2,5.29-1.09,1.45-2.48,2.56-4.19,3.33-1.71.77-3.7,1.15-5.96,1.15Z"/>
      <path class="cls-1" d="M743.69,643.82l9.91-26.96h3.59l10.01,26.96h-2.3l-9.48-25.95-9.53,25.95h-2.2ZM748.53,634.96l.43-1.92h12.93l.38,1.92h-13.74Z"/>
      <path class="cls-1" d="M796.7,644.3c-2.46,0-4.67-.53-6.63-1.58-1.96-1.05-3.51-2.61-4.65-4.67-1.13-2.06-1.7-4.62-1.7-7.69s.56-5.68,1.68-7.76c1.12-2.07,2.67-3.63,4.67-4.67,1.99-1.04,4.27-1.56,6.82-1.56,2.11,0,3.97.38,5.6,1.15,1.63.77,2.99,1.87,4.09,3.33,1.1,1.45,1.84,3.23,2.23,5.34h-2.25c-.32-1.69-.93-3.12-1.84-4.29-.91-1.17-2.03-2.04-3.35-2.63-1.33-.59-2.82-.89-4.48-.89-3.38,0-6.06,1.02-8.02,3.06-1.96,2.04-2.94,4.98-2.94,8.81s.97,6.95,2.9,8.98,4.56,3.04,7.88,3.04c1.82,0,3.43-.3,4.84-.91,1.4-.61,2.54-1.48,3.42-2.63.88-1.15,1.46-2.55,1.75-4.21h2.35c-.38,2.07-1.12,3.84-2.2,5.29-1.09,1.45-2.48,2.56-4.19,3.33-1.71.77-3.7,1.15-5.96,1.15Z"/>
      <path class="cls-1" d="M827.87,618.83v-1.96h9.67v1.96h-9.67ZM827.87,643.82v-1.91h9.67v1.91h-9.67ZM831.65,642.96v-25.23h2.15v25.23h-2.15Z"/>
      <path class="cls-1" d="M855.97,643.82l9.91-26.96h3.59l10.01,26.96h-2.3l-9.48-25.95-9.53,25.95h-2.2ZM860.81,634.96l.43-1.92h12.93l.38,1.92h-13.74Z"/>
    </g>
  </g>
  <g>
    <path class="cls-1" d="M385.63,505.6l-.29,88.27,14.25-19.43.2-60.21,43.83.15,9.83-13.4-62.94-.21c-.95,0-4.86,3.88-4.87,4.84Z"/>
    <path class="cls-1" d="M303.17,500.47h-.23c-.11-.04-.2-.08-.28-.07l-10.97.04-49.55-.17.24.33h-2.67s9.83,13.41,9.83,13.41l42.15-.14h1.68s.2,60.2.2,60.2l14.25,19.43-.06-17.36.24-70.8c0-.95-3.88-4.86-4.84-4.87Z"/>
    <path class="cls-1" d="M487.82,454.08l10.38-14.16-109.73-.36c-15.75,1.37-29.96,7.27-41.76,17.71-.37-.37-.76-.71-1.13-1.07v-.05c-.13-.11-.26-.21-.39-.32-8.33-7.68-18.72-12.5-29.73-14.93-3.5-.81-7.08-1.39-10.76-1.71l-6.44.02-100.34-.3.46.63h-3.4s10.38,14.18,10.38,14.18l86.57-.33,13.68.04c1.93.22,3.86.54,5.77.93,9.32,2.01,18.35,5.97,25.03,12.83l-7.2,14.99c-6.15-5.76-14.4-11.29-22.94-12.29-.3-.06-.55-.1-.72-.1l-13.88.05-71.64-.24.34.48h-3.03s10.32,14.08,10.32,14.08l64.21-.1,13.3.07c10.07,2.06,17.52,10.03,18.81,20.28l.22,71.75-.13,37.73.25.35v1.77s14.25,19.42,14.25,19.42l-.2-59.27.25-75.2c.02-4.64,4.71-16.26,7.17-20.52.44-.76-.03-1.87,1.48-1.47.43.11,3.49,6.93,3.91,8.03,1.12,2.9,3.87,11.34,3.86,14.02l-.45,134.78,14.24-19.42.35-111.61c1.31-10.38,8.92-18.43,19.2-20.37l77.13.12,10.32-14.07-88.21-.29c-1.47,0-9.59,2.74-11.34,3.56-4.6,2.15-8.36,5.86-12.2,9.05l-7.31-15.21c8.08-8.29,19.59-12.35,30.88-13.84l100.17.38Z"/>
  </g>
</svg>