<?xml version="1.0" encoding="UTF-8"?>
<svg id="Camada_1" data-name="Camada 1" xmlns="http://www.w3.org/2000/svg" xmlns:xlink="http://www.w3.org/1999/xlink" viewBox="0 0 1080 1080">
  <defs>
    <style>
      .cls-1 {
        fill: none;
      }

      .cls-2 {
        fill: url(#Novo_padrão);
      }

      .cls-3 {
        fill: #62152e;
      }
    </style>
    <pattern id="Novo_padrão" data-name="Novo padrão" x="0" y="0" width="143.3" height="187.91" patternTransform="translate(-80.46 -5099.88)" patternUnits="userSpaceOnUse" viewBox="0 0 143.3 187.91">
      <g>
        <rect class="cls-1" width="143.3" height="187.91"/>
        <g>
          <path class="cls-3" d="M121.88,170.31l-29.12-.1,4.63,6.43,20.01.07-.09,27.56,6.74,9.34.14-40.98c0-.45-1.85-2.32-2.31-2.32Z"/>
          <path class="cls-3" d="M76.55,147.73l46.49.13c5.52.65,11.13,2.64,15.05,6.71l-3.54,7.24c-2.96-2.83-7.01-5.61-11.2-6.09l-41.15-.14,4.87,6.75,35.87.18c4.9.96,8.5,4.82,9.1,9.78l-.19,52.14,6.73,9.34.21-63.22c0-2.21,2.25-7.76,3.42-9.79.21-.37-.01-.89.71-.7.21.05,1.66,3.31,1.87,3.83.53,1.39,1.85,5.41,1.84,6.69l-.21,64.32,6.8-9.27.17-53.26c.62-4.95,4.26-8.8,9.16-9.72l36.81.06,4.92-6.71-42.09-.14c-.7,0-4.58,1.31-5.41,1.7-2.19,1.02-3.99,2.8-5.82,4.32l-3.49-7.26c3.86-3.95,9.35-5.89,14.74-6.61l47.8.18,4.96-6.76-52.36-.17c-7.51.66-14.3,3.47-19.93,8.45-5.39-5.36-12.78-8.02-20.31-8.61l-50.7-.15,4.9,6.8Z"/>
        </g>
        <g>
          <path class="cls-3" d="M17.93,172.75l-.14,42.12,6.8-9.27.1-28.73,20.92.07,4.69-6.4-30.04-.1c-.46,0-2.32,1.85-2.32,2.31Z"/>
          <path class="cls-3" d="M-66.75,147.73l46.49.13c5.52.65,11.13,2.64,15.05,6.71l-3.54,7.24c-2.96-2.83-7.01-5.61-11.2-6.09l-41.15-.14,4.87,6.75,35.87.18c4.9.96,8.5,4.82,9.1,9.78l-.19,52.14,6.73,9.34.21-63.22c0-2.21,2.25-7.76,3.42-9.79.21-.37-.01-.89.71-.7.21.05,1.66,3.31,1.87,3.83.53,1.39,1.85,5.41,1.84,6.69l-.21,64.32,6.8-9.27.17-53.26c.62-4.95,4.26-8.8,9.16-9.72l36.81.06,4.92-6.71-42.09-.14c-.7,0-4.58,1.31-5.41,1.7-2.19,1.02-3.99,2.8-5.82,4.32l-3.49-7.26c3.86-3.95,9.35-5.89,14.74-6.61l47.8.18,4.96-6.76-52.36-.17c-7.51.66-14.3,3.47-19.93,8.45-5.39-5.36-12.78-8.02-20.31-8.61l-50.7-.15,4.9,6.8Z"/>
        </g>
        <g>
          <path class="cls-3" d="M89.58,78.8l-.14,42.12,6.8-9.27.1-28.73,20.92.07,4.69-6.4-30.04-.1c-.46,0-2.32,1.85-2.32,2.31Z"/>
          <path class="cls-3" d="M50.23,76.35l-29.12-.1,4.63,6.43,20.01.07-.09,27.56,6.74,9.34.14-40.98c0-.45-1.85-2.32-2.31-2.32Z"/>
          <path class="cls-3" d="M4.9,53.77l46.49.13c5.52.65,11.13,2.64,15.05,6.71l-3.54,7.24c-2.96-2.83-7.01-5.61-11.2-6.09l-41.15-.14,4.87,6.75,35.87.18c4.9.96,8.5,4.82,9.1,9.78l-.19,52.14,6.73,9.34.21-63.22c0-2.21,2.25-7.76,3.42-9.79.21-.37-.01-.89.71-.7.21.05,1.66,3.31,1.87,3.83.53,1.39,1.85,5.41,1.84,6.69l-.21,64.32,6.8-9.27.17-53.26c.62-4.95,4.26-8.8,9.16-9.72l36.81.06,4.92-6.71-42.09-.14c-.7,0-4.58,1.31-5.41,1.7-2.19,1.02-3.99,2.8-5.82,4.32l-3.49-7.26c3.86-3.95,9.35-5.89,14.74-6.61l47.8.18,4.96-6.76-52.36-.17c-7.51.66-14.3,3.47-19.93,8.45-5.39-5.36-12.78-8.02-20.31-8.61l-50.7-.15,4.9,6.8Z"/>
        </g>
        <g>
          <path class="cls-3" d="M121.88-17.6l-29.12-.1,4.63,6.43,20.01.07-.09,27.56,6.74,9.34.14-40.98c0-.45-1.85-2.32-2.31-2.32Z"/>
          <path class="cls-3" d="M76.55-40.18l46.49.13c5.52.65,11.13,2.64,15.05,6.71l-3.54,7.24c-2.96-2.83-7.01-5.61-11.2-6.09l-41.15-.14,4.87,6.75,35.87.18c4.9.96,8.5,4.82,9.1,9.78l-.19,52.14,6.73,9.34.21-63.22c0-2.21,2.25-7.76,3.42-9.79.21-.37-.01-.89.71-.7.21.05,1.66,3.31,1.87,3.83.53,1.39,1.85,5.41,1.84,6.69l-.21,64.32,6.8-9.27.17-53.26c.62-4.95,4.26-8.8,9.16-9.72l36.81.06,4.92-6.71-42.09-.14c-.7,0-4.58,1.31-5.41,1.7-2.19,1.02-3.99,2.8-5.82,4.32l-3.49-7.26c3.86-3.95,9.35-5.89,14.74-6.61l47.8.18,4.96-6.76-52.36-.17c-7.51.66-14.3,3.47-19.93,8.45-5.39-5.36-12.78-8.02-20.31-8.61l-50.7-.15,4.9,6.8Z"/>
        </g>
        <g>
          <path class="cls-3" d="M17.93-15.15l-.14,42.12,6.8-9.27.1-28.73,20.92.07,4.69-6.4-30.04-.1c-.46,0-2.32,1.85-2.32,2.31Z"/>
          <path class="cls-3" d="M-66.75-40.18l46.49.13c5.52.65,11.13,2.64,15.05,6.71l-3.54,7.24c-2.96-2.83-7.01-5.61-11.2-6.09l-41.15-.14,4.87,6.75,35.87.18c4.9.96,8.5,4.82,9.1,9.78l-.19,52.14,6.73,9.34.21-63.22c0-2.21,2.25-7.76,3.42-9.79.21-.37-.01-.89.71-.7.21.05,1.66,3.31,1.87,3.83.53,1.39,1.85,5.41,1.84,6.69l-.21,64.32,6.8-9.27.17-53.26c.62-4.95,4.26-8.8,9.16-9.72l36.81.06,4.92-6.71-42.09-.14c-.7,0-4.58,1.31-5.41,1.7-2.19,1.02-3.99,2.8-5.82,4.32l-3.49-7.26c3.86-3.95,9.35-5.89,14.74-6.61l47.8.18,4.96-6.76-52.36-.17c-7.51.66-14.3,3.47-19.93,8.45-5.39-5.36-12.78-8.02-20.31-8.61l-50.7-.15,4.9,6.8Z"/>
        </g>
      </g>
    </pattern>
  </defs>
  <rect class="cls-2" x="-3.5" y="-.5" width="1087" height="1081"/>
</svg>